<svg width="58" height="40" viewBox="0 0 58 40" fill="none" xmlns="http://www.w3.org/2000/svg">
<path d="M7.12953 17V0.899999H15.3635C17.4795 0.899999 19.0589 1.291 20.1015 2.073C21.1442 2.83967 21.6655 3.85167 21.6655 5.109C21.6655 5.937 21.4432 6.66533 20.9985 7.294C20.5692 7.90733 19.9559 8.398 19.1585 8.766C18.3765 9.11867 17.4412 9.295 16.3525 9.295L16.8125 8.191C17.9472 8.191 18.9362 8.36733 19.7795 8.72C20.6229 9.05733 21.2745 9.55567 21.7345 10.215C22.2099 10.859 22.4475 11.6487 22.4475 12.584C22.4475 13.9793 21.8802 15.068 20.7455 15.85C19.6262 16.6167 17.9855 17 15.8235 17H7.12953ZM11.6375 13.711H15.4555C16.2375 13.711 16.8279 13.5807 17.2265 13.32C17.6405 13.044 17.8475 12.63 17.8475 12.078C17.8475 11.526 17.6405 11.1197 17.2265 10.859C16.8279 10.583 16.2375 10.445 15.4555 10.445H11.3155V7.294H14.7655C15.5322 7.294 16.1072 7.16367 16.4905 6.903C16.8739 6.64233 17.0655 6.25133 17.0655 5.73C17.0655 5.20867 16.8739 4.82533 16.4905 4.58C16.1072 4.31933 15.5322 4.189 14.7655 4.189H11.6375V13.711ZM32.2353 17.322C29.8586 17.322 28.0033 16.6703 26.6693 15.367C25.3353 14.0637 24.6683 12.216 24.6683 9.824V0.899999H29.2223V9.686C29.2223 11.066 29.4906 12.055 30.0273 12.653C30.5793 13.251 31.3306 13.55 32.2813 13.55C33.232 13.55 33.9756 13.251 34.5123 12.653C35.049 12.055 35.3173 11.066 35.3173 9.686V0.899999H39.8023V9.824C39.8023 12.216 39.1353 14.0637 37.8013 15.367C36.4673 16.6703 34.612 17.322 32.2353 17.322ZM46.7337 17V10.192L47.7917 12.929L40.5927 0.899999H45.3997L50.5977 9.617H47.8147L53.0357 0.899999H57.4517L50.2757 12.929L51.2877 10.192V17H46.7337Z" fill="white"/>
<path d="M0.526406 40V20.4H5.09041L15.8984 33.448H13.7424V20.4H19.1744V40H14.6104L3.80241 26.952H5.95841V40H0.526406ZM28.237 28.996H37.281V33.28H28.237V28.996ZM28.629 40H23.085V20.4H38.457V24.684H28.629V40ZM45.3586 40V24.796H39.3386V20.4H56.8946V24.796H50.9026V40H45.3586Z" fill="#D1D606"/>
</svg>
