<svg width="26" height="26" viewBox="0 0 26 26" fill="none" xmlns="http://www.w3.org/2000/svg">
<path d="M13 25.5C6.09644 25.5 0.5 19.9036 0.5 13C0.5 6.09644 6.09644 0.5 13 0.5C19.9036 0.5 25.5 6.09644 25.5 13C25.4924 19.9004 19.9004 25.4924 13 25.5ZM13 3C7.50675 3.00139 3.04308 7.43358 3.0028 12.9267C2.96252 18.4198 7.36073 22.9169 12.8534 22.9989C18.346 23.0808 22.8764 18.7169 23 13.225V15.4538V13C22.9938 7.47972 18.5203 3.0062 13 3ZM14.8125 19.125L8.625 12.9375L14.8125 6.75L16.58 8.5175L12.16 12.9375L16.5788 17.3575L14.8138 19.125H14.8125Z" fill="#D1D606"/>
</svg>
